<svg width="1000" height="1000" viewBox="0 0 1000 1000" fill="none" xmlns="http://www.w3.org/2000/svg">
<path d="M403.645 283.286C424.603 245.011 445.34 207.313 465.94 169.54C468.16 165.468 470.795 163.325 475.673 163.333C528.712 163.427 581.752 163.366 634.791 163.36C636.427 163.359 638.142 163.233 639.519 164.75C640.805 168.747 637.797 171.498 636.155 174.491C573.924 287.89 511.597 401.236 449.325 514.613C433.691 543.077 418.163 571.599 402.696 600.153C400.723 603.795 398.897 606.147 393.98 606.128C340.664 605.921 287.348 606.014 234.031 606.005C232.441 606.005 230.662 606.547 228.369 603.437C286.465 497.348 344.925 390.594 403.645 283.286Z" fill="#1B263B"/>
<path d="M536.647 487.551C528.849 477.548 530.275 468.963 536.162 458.54C560.188 416.001 583.2 372.89 606.616 330.006C608.589 326.394 610.783 322.903 614.351 316.851C709.49 490.612 803.665 662.615 897.668 834.302C894.658 837.745 891.693 836.991 889.048 836.995C837.943 837.072 786.837 836.99 735.733 837.226C729.828 837.253 726.797 834.935 724.107 830C683.982 756.382 643.719 682.841 603.447 609.303C581.311 568.882 559.1 528.501 536.647 487.551Z" fill="#0A6A9F"/>
<path d="M240.729 671.367C279.857 671.416 318.151 671.463 356.446 671.543C357.229 671.545 358.012 671.943 358.786 672.154C360.813 675.638 358.248 678.093 356.906 680.577C330.011 730.365 302.959 780.068 276.17 829.913C273.125 835.579 269.418 837.457 263.03 837.428C211.971 837.195 160.91 837.347 109.85 837.35C107.415 837.35 104.981 837.048 102.835 836.906C100.725 832.94 103.281 830.568 104.666 828.037C131.429 779.127 158.337 730.296 184.936 681.297C188.749 674.274 192.847 670.481 201.618 671.132C214.313 672.074 227.13 671.369 240.729 671.367Z" fill="#1B263B"/>
<path d="M476.58 754.959C445.238 741.525 428.574 712.324 433.673 680.581C438.476 650.685 464.792 627.853 497.2 625.464C527.208 623.252 558.916 649.792 564.187 681.532C571.022 722.69 538.257 760.332 496.703 759.024C490.005 758.813 483.546 757.233 476.58 754.959Z" fill="#1B263B"/>
</svg>
