<svg width="3880" height="1008" viewBox="0 0 3880 1008" fill="none" xmlns="http://www.w3.org/2000/svg">
<path d="M1032.75 800L1259.15 237.6H1347.95L1573.55 800H1457.55L1283.15 338.4H1323.15L1146.35 800H1032.75ZM1152.75 695.2V604H1455.15V695.2H1152.75ZM1699.83 800V252.8H1804.63V800H1699.83ZM1609.43 505.6V413.6H2134.23V505.6H1609.43ZM1939.03 800V252.8H2043.83V800H1939.03ZM2201.81 800V413.6H2306.61V800H2201.81ZM2306.61 586.4L2265.81 559.2C2270.61 511.733 2284.47 474.4 2307.41 447.2C2330.34 419.467 2363.41 405.6 2406.61 405.6C2425.27 405.6 2442.07 408.8 2457.01 415.2C2471.94 421.067 2485.54 430.933 2497.81 444.8L2432.21 520C2426.34 513.6 2419.14 508.8 2410.61 505.6C2402.61 502.4 2393.27 500.8 2382.61 500.8C2360.21 500.8 2341.81 508 2327.41 522.4C2313.54 536.267 2306.61 557.6 2306.61 586.4ZM2542.62 800V413.6H2648.22V800H2542.62ZM2595.42 351.2C2578.35 351.2 2564.22 345.6 2553.02 334.4C2541.82 322.667 2536.22 308.267 2536.22 291.2C2536.22 274.667 2541.82 260.533 2553.02 248.8C2564.22 237.067 2578.35 231.2 2595.42 231.2C2613.02 231.2 2627.15 237.067 2637.82 248.8C2649.02 260.533 2654.62 274.667 2654.62 291.2C2654.62 308.267 2649.02 322.667 2637.82 334.4C2627.15 345.6 2613.02 351.2 2595.42 351.2ZM3100.26 800L2856.26 506.4L3093.86 237.6H3229.86L2965.06 529.6V479.2L3238.66 800H3100.26ZM2760.26 800V237.6H2869.06V800H2760.26ZM3307.84 800V413.6H3413.44V800H3307.84ZM3360.64 351.2C3343.57 351.2 3329.44 345.6 3318.24 334.4C3307.04 322.667 3301.44 308.267 3301.44 291.2C3301.44 274.667 3307.04 260.533 3318.24 248.8C3329.44 237.067 3343.57 231.2 3360.64 231.2C3378.24 231.2 3392.37 237.067 3403.04 248.8C3414.24 260.533 3419.84 274.667 3419.84 291.2C3419.84 308.267 3414.24 322.667 3403.04 334.4C3392.37 345.6 3378.24 351.2 3360.64 351.2ZM3571.08 800V252.8H3675.88V800H3571.08ZM3480.68 505.6V413.6H3766.28V505.6H3480.68Z" fill="black"/>
<path d="M402.489 287.286C423.447 249.011 444.184 211.313 464.783 173.54C467.004 169.468 469.639 167.325 474.516 167.333C527.556 167.427 580.595 167.366 633.635 167.36C635.271 167.359 636.985 167.233 638.363 168.75C639.648 172.747 636.641 175.498 634.999 178.491C572.768 291.89 510.44 405.236 448.169 518.613C432.535 547.077 417.007 575.598 401.54 604.153C399.567 607.795 397.741 610.147 392.824 610.128C339.508 609.921 286.191 610.014 232.875 610.005C231.284 610.005 229.506 610.547 227.213 607.437C285.309 501.348 343.768 394.594 402.489 287.286Z" fill="#1B263B"/>
<path d="M535.491 491.55C527.693 481.547 529.119 472.963 535.006 462.54C559.031 420.001 582.044 376.89 605.46 334.006C607.432 330.394 609.627 326.903 613.195 320.851C708.333 494.612 802.509 666.615 896.512 838.302C893.501 841.744 890.537 840.99 887.892 840.994C836.786 841.072 785.681 840.99 734.577 841.226C728.671 841.253 725.641 838.935 722.951 833.999C682.826 760.382 642.562 686.84 602.291 613.303C580.155 572.881 557.944 532.501 535.491 491.55Z" fill="#0A5F8F"/>
<path d="M239.572 675.367C278.7 675.416 316.995 675.462 355.289 675.543C356.073 675.545 356.856 675.943 357.629 676.153C359.657 679.638 357.091 682.093 355.75 684.577C328.855 734.365 301.803 784.068 275.014 833.913C271.969 839.578 268.262 841.457 261.874 841.428C210.815 841.194 159.754 841.347 108.693 841.349C106.259 841.349 103.825 841.048 101.678 840.906C99.5686 836.94 102.125 834.567 103.51 832.037C130.272 783.127 157.181 734.296 183.78 685.297C187.592 678.274 191.691 674.48 200.461 675.132C213.156 676.074 225.974 675.369 239.572 675.367Z" fill="#1B263B"/>
<path d="M475.424 758.959C444.081 745.525 427.418 716.324 432.517 684.581C437.32 654.685 463.635 631.853 496.044 629.464C526.052 627.252 557.76 653.792 563.031 685.532C569.866 726.69 537.101 764.332 495.546 763.024C488.849 762.813 482.39 761.233 475.424 758.959Z" fill="#1B263B"/>
</svg>
