<svg width="3800" height="1008" viewBox="0 0 3800 1008" fill="none" xmlns="http://www.w3.org/2000/svg">
<path d="M1034.95 800L1265.35 240H1329.35L1558.15 800H1458.95L1279.75 346.4H1313.35L1132.55 800H1034.95ZM1148.55 692V612H1445.35V692H1148.55ZM1692.67 800V256H1780.67V800H1692.67ZM1600.67 496V416H2104.67V496H1600.67ZM1924.67 800V256H2012.67V800H1924.67ZM2176.64 800V416H2264.64V800H2176.64ZM2264.64 586.4L2234.24 571.2C2234.24 522.667 2244.91 483.467 2266.24 453.6C2288.11 423.2 2320.91 408 2364.64 408C2383.84 408 2401.18 411.467 2416.64 418.4C2432.11 425.333 2446.51 436.533 2459.84 452L2402.24 511.2C2395.31 503.733 2387.58 498.4 2379.04 495.2C2370.51 492 2360.64 490.4 2349.44 490.4C2324.91 490.4 2304.64 498.133 2288.64 513.6C2272.64 529.067 2264.64 553.333 2264.64 586.4ZM2511.23 800V416H2599.23V800H2511.23ZM2555.23 345.6C2540.29 345.6 2527.76 340.533 2517.63 330.4C2508.03 320.267 2503.23 307.733 2503.23 292.8C2503.23 277.867 2508.03 265.333 2517.63 255.2C2527.76 245.067 2540.29 240 2555.23 240C2570.69 240 2583.23 245.067 2592.83 255.2C2602.43 265.333 2607.23 277.867 2607.23 292.8C2607.23 307.733 2602.43 320.267 2592.83 330.4C2583.23 340.533 2570.69 345.6 2555.23 345.6ZM3056.33 800L2797.13 508L3050.73 240H3168.33L2888.33 531.2V480.8L3176.33 800H3056.33ZM2717.93 800V240H2809.93V800H2717.93ZM3252.23 800V416H3340.23V800H3252.23ZM3296.23 345.6C3281.29 345.6 3268.76 340.533 3258.63 330.4C3249.03 320.267 3244.23 307.733 3244.23 292.8C3244.23 277.867 3249.03 265.333 3258.63 255.2C3268.76 245.067 3281.29 240 3296.23 240C3311.69 240 3324.23 245.067 3333.83 255.2C3343.43 265.333 3348.23 277.867 3348.23 292.8C3348.23 307.733 3343.43 320.267 3333.83 330.4C3324.23 340.533 3311.69 345.6 3296.23 345.6ZM3505.33 800V256H3593.33V800H3505.33ZM3413.33 496V416H3685.33V496H3413.33Z" fill="black"/>
<path d="M401.489 287.286C422.447 249.011 443.184 211.313 463.783 173.54C466.004 169.468 468.639 167.325 473.516 167.333C526.556 167.427 579.595 167.366 632.635 167.36C634.271 167.359 635.985 167.233 637.363 168.75C638.648 172.747 635.641 175.498 633.999 178.491C571.768 291.89 509.44 405.236 447.169 518.613C431.535 547.077 416.007 575.599 400.54 604.153C398.567 607.795 396.741 610.147 391.824 610.128C338.508 609.921 285.191 610.014 231.875 610.005C230.284 610.005 228.506 610.547 226.213 607.437C284.309 501.348 342.768 394.594 401.489 287.286Z" fill="#1B263B"/>
<path d="M534.491 491.55C526.693 481.547 528.119 472.963 534.006 462.54C558.031 420.001 581.044 376.89 604.46 334.006C606.432 330.394 608.627 326.903 612.195 320.851C707.333 494.612 801.509 666.615 895.512 838.302C892.501 841.744 889.537 840.99 886.892 840.994C835.786 841.072 784.681 840.99 733.577 841.226C727.671 841.253 724.641 838.935 721.951 833.999C681.826 760.382 641.562 686.84 601.291 613.303C579.155 572.881 556.944 532.501 534.491 491.55Z" fill="#0A6A9F"/>
<path d="M238.572 675.367C277.7 675.416 315.995 675.462 354.289 675.543C355.073 675.545 355.856 675.943 356.629 676.153C358.657 679.638 356.091 682.093 354.75 684.577C327.855 734.365 300.803 784.068 274.014 833.913C270.969 839.578 267.262 841.457 260.874 841.428C209.815 841.194 158.754 841.347 107.693 841.349C105.259 841.349 102.825 841.048 100.678 840.906C98.5686 836.94 101.125 834.567 102.51 832.037C129.272 783.127 156.181 734.296 182.78 685.297C186.592 678.274 190.691 674.48 199.461 675.132C212.156 676.074 224.974 675.369 238.572 675.367Z" fill="#1B263B"/>
<path d="M474.424 758.959C443.081 745.525 426.418 716.324 431.517 684.581C436.32 654.685 462.635 631.853 495.044 629.464C525.052 627.252 556.76 653.792 562.031 685.532C568.866 726.69 536.101 764.332 494.546 763.024C487.849 762.813 481.39 761.233 474.424 758.959Z" fill="#1B263B"/>
</svg>
